<svg width="907" height="120" viewBox="0 0 907 120" fill="none" xmlns="http://www.w3.org/2000/svg">
<path d="M84 33C88.4183 33 92 36.5817 92 41V79C92 83.4183 88.4183 87 84 87H47C45.993 87 45.0301 86.8123 44.1426 86.4727C44.0731 86.4913 44.0253 86.4941 44 86.4775C43.9059 86.416 43.8111 86.355 43.7158 86.2939C43.1119 86.0216 42.5481 85.6772 42.0352 85.2705C38.2342 83.069 33.7461 81.1725 29.2734 79.5869V82.4277C29.2733 84.8852 27.2807 86.877 24.8232 86.877H17.7988C15.3416 86.8767 13.3497 84.885 13.3496 82.4277V74.9658C12.1873 74.691 11.1468 74.4568 10.2607 74.2646C8.37263 73.855 7.00008 72.1957 7 70.2637V53.6084C7 51.6009 8.47672 49.8935 10.4453 49.5C16.8224 48.2251 30.6887 44.6695 40.2744 36.5332C40.3389 36.4784 40.4057 36.4268 40.4727 36.376C40.4641 36.388 40.4557 36.4001 40.4473 36.4121C41.8942 34.3493 44.289 33 47 33H84ZM47 37.8994C45.2877 37.8994 43.8994 39.2877 43.8994 41V79C43.8994 80.7123 45.2877 82.1006 47 82.1006H84C85.7123 82.1006 87.1006 80.7123 87.1006 79V41C87.1006 39.2877 85.7123 37.8994 84 37.8994H47ZM18.249 81.9775H24.374V77.9629C22.2394 77.2998 20.1704 76.7113 18.249 76.1982V81.9775Z" fill="#FF0163" style="fill:#FF0163;fill:color(display-p3 1.0000 0.0039 0.3882);fill-opacity:1;"/>
<path d="M57 58C57 56.8954 57.8954 56 59 56H60.7809C61.8855 56 62.7809 56.8954 62.7809 58V62.6714C62.7809 63.776 61.8855 64.6714 60.7809 64.6714H59C57.8954 64.6714 57 63.776 57 62.6714V58Z" fill="#FF0163" style="fill:#FF0163;fill:color(display-p3 1.0000 0.0039 0.3882);fill-opacity:1;"/>
<path d="M70.4531 58C70.4531 56.8954 71.3486 56 72.4531 56H74.234C75.3386 56 76.234 56.8954 76.234 58V62.6714C76.234 63.776 75.3386 64.6714 74.234 64.6714H72.4531C71.3486 64.6714 70.4531 63.776 70.4531 62.6714V58Z" fill="#FF0163" style="fill:#FF0163;fill:color(display-p3 1.0000 0.0039 0.3882);fill-opacity:1;"/>
<path d="M118.8 96V31.2H137.28L156.48 76.88H156.8L175.92 31.2H194.32V96H180.8V50.24H180.48L161.92 96H150.32L131.84 50.24H131.52V96H118.8ZM229.316 96.96C224.143 96.96 219.636 95.9467 215.796 93.92C211.956 91.84 208.996 88.9333 206.916 85.2C204.836 81.4133 203.796 76.96 203.796 71.84C203.796 66.72 204.81 62.32 206.836 58.64C208.863 54.9067 211.743 52.0533 215.476 50.08C219.263 48.0533 223.716 47.04 228.836 47.04C233.85 47.04 238.143 48 241.716 49.92C245.343 51.84 248.116 54.5867 250.036 58.16C251.956 61.7333 252.916 66 252.916 70.96V75.44H216.516C217.05 79.0133 218.41 81.7333 220.596 83.6C222.783 85.4667 225.663 86.4 229.236 86.4C232.063 86.4 234.303 85.92 235.956 84.96C237.61 84 238.783 82.5333 239.476 80.56H252.756C251.69 85.68 249.103 89.7067 244.996 92.64C240.89 95.52 235.663 96.96 229.316 96.96ZM216.836 66.64H240.196C239.77 63.6 238.596 61.3333 236.676 59.84C234.756 58.2933 232.17 57.52 228.916 57.52C225.663 57.52 222.996 58.2933 220.916 59.84C218.89 61.3867 217.53 63.6533 216.836 66.64ZM283.851 116.16C276.651 116.16 270.785 114.693 266.251 111.76C261.771 108.88 259.105 104.853 258.251 99.68H272.331C273.611 103.627 277.318 105.6 283.451 105.6C287.611 105.6 290.785 104.64 292.971 102.72C295.211 100.853 296.331 98.1333 296.331 94.56V88.16H295.931C294.491 90.72 292.491 92.6667 289.931 94C287.425 95.3333 284.411 96 280.891 96C276.358 96 272.411 95.0133 269.051 93.04C265.745 91.0133 263.158 88.16 261.291 84.48C259.478 80.8 258.571 76.48 258.571 71.52C258.571 64.0533 260.625 58.1067 264.731 53.68C268.891 49.2533 274.571 47.04 281.771 47.04C285.825 47.04 289.265 47.8133 292.091 49.36C294.971 50.9067 297.265 53.0667 298.971 55.84H302.331V48H315.771V61.12H309.211V94.72C309.211 101.547 307.025 106.827 302.651 110.56C298.278 114.293 292.011 116.16 283.851 116.16ZM284.171 84.48C287.851 84.48 290.731 83.4667 292.811 81.44C294.891 79.4133 295.931 76.64 295.931 73.12V69.76C295.931 66.2933 294.865 63.5733 292.731 61.6C290.651 59.5733 287.798 58.56 284.171 58.56C280.278 58.56 277.238 59.7067 275.051 62C272.918 64.2933 271.851 67.4933 271.851 71.6C271.851 75.7067 272.918 78.88 275.051 81.12C277.238 83.36 280.278 84.48 284.171 84.48ZM338.769 96.88C333.115 96.88 328.689 95.52 325.489 92.8C322.289 90.0267 320.689 86.4 320.689 81.92C320.689 77.1733 322.342 73.52 325.649 70.96C328.955 68.4 333.702 67.12 339.889 67.12H353.649V65.28C353.649 60.1067 350.555 57.52 344.369 57.52C338.982 57.52 335.729 59.3867 334.609 63.12H321.409C322.475 57.84 324.955 53.84 328.849 51.12C332.742 48.4 337.915 47.04 344.369 47.04C351.515 47.04 356.955 48.64 360.689 51.84C364.475 55.04 366.369 59.7067 366.369 65.84V82.88H372.609V96H359.169V88.16H355.809C354.155 90.9333 351.942 93.0933 349.169 94.64C346.395 96.1333 342.929 96.88 338.769 96.88ZM340.769 86.8C343.275 86.8 345.489 86.3467 347.409 85.44C349.329 84.5333 350.849 83.3333 351.969 81.84C353.089 80.2933 353.649 78.56 353.649 76.64V75.92H340.529C335.729 75.92 333.329 77.7067 333.329 81.28C333.329 83.04 333.995 84.4 335.329 85.36C336.662 86.32 338.475 86.8 340.769 86.8ZM381.908 115.2V61.12H375.348V48H388.788V55.84H392.148C393.854 53.0667 396.121 50.9067 398.948 49.36C401.828 47.8133 405.294 47.04 409.347 47.04C414.308 47.04 418.494 48.08 421.907 50.16C425.321 52.24 427.908 55.1467 429.668 58.88C431.428 62.6133 432.308 66.9867 432.308 72C432.308 77.0133 431.454 81.4133 429.748 85.2C428.041 88.9333 425.561 91.84 422.307 93.92C419.054 95.9467 415.108 96.96 410.468 96.96C406.948 96.96 403.934 96.32 401.428 95.04C398.921 93.7067 396.947 91.84 395.508 89.44H395.188V115.2H381.908ZM406.868 85.44C410.921 85.44 413.961 84.24 415.988 81.84C418.014 79.44 419.028 76.16 419.028 72C419.028 67.84 418.014 64.56 415.988 62.16C413.961 59.76 410.921 58.56 406.868 58.56C403.294 58.56 400.441 59.5733 398.308 61.6C396.228 63.5733 395.188 66.32 395.188 69.84V74.16C395.188 77.68 396.228 80.4533 398.308 82.48C400.441 84.4533 403.294 85.44 406.868 85.44ZM440.169 96V28.8H453.449V54.88H453.769C455.315 52.32 457.395 50.4 460.009 49.12C462.622 47.7867 465.715 47.12 469.289 47.12C475.315 47.12 480.089 48.96 483.609 52.64C487.182 56.2667 488.969 61.1467 488.969 67.28V96H475.689V69.76C475.689 66.24 474.729 63.5733 472.809 61.76C470.942 59.8933 468.195 58.96 464.569 58.96C460.942 58.96 458.169 59.8933 456.249 61.76C454.382 63.5733 453.449 66.24 453.449 69.76V96H440.169ZM522.324 96.96C517.097 96.96 512.537 95.9467 508.644 93.92C504.804 91.84 501.817 88.9333 499.684 85.2C497.55 81.4667 496.484 77.04 496.484 71.92C496.484 66.8533 497.524 62.4533 499.604 58.72C501.737 54.9867 504.75 52.1067 508.644 50.08C512.537 48.0533 517.124 47.04 522.404 47.04C527.63 47.04 532.164 48.0533 536.004 50.08C539.844 52.1067 542.804 54.9867 544.884 58.72C546.964 62.4533 548.004 66.88 548.004 72C548.004 77.0667 546.964 81.4933 544.884 85.28C542.804 89.0133 539.817 91.8933 535.924 93.92C532.084 95.9467 527.55 96.96 522.324 96.96ZM522.324 85.44C526.324 85.44 529.39 84.24 531.524 81.84C533.657 79.3867 534.724 76.08 534.724 71.92C534.724 67.76 533.657 64.5067 531.524 62.16C529.39 59.76 526.324 58.56 522.324 58.56C518.27 58.56 515.15 59.76 512.964 62.16C510.83 64.5067 509.764 67.76 509.764 71.92C509.764 76.08 510.83 79.3867 512.964 81.84C515.15 84.24 518.27 85.44 522.324 85.44ZM559.376 96V61.12H552.816V48H566.256V55.84H569.616C571.483 53.0667 573.83 50.9333 576.656 49.44C579.483 47.8933 583.003 47.12 587.216 47.12C593.883 47.12 599.03 48.96 602.656 52.64C606.336 56.2667 608.176 61.1467 608.176 67.28V96H594.896V69.76C594.896 66.24 593.936 63.5733 592.016 61.76C590.15 59.8933 587.403 58.96 583.776 58.96C580.15 58.96 577.376 59.8933 575.456 61.76C573.59 63.5733 572.656 66.24 572.656 69.76V96H559.376ZM641.254 96.96C636.08 96.96 631.574 95.9467 627.734 93.92C623.894 91.84 620.934 88.9333 618.854 85.2C616.774 81.4133 615.734 76.96 615.734 71.84C615.734 66.72 616.747 62.32 618.774 58.64C620.8 54.9067 623.68 52.0533 627.414 50.08C631.2 48.0533 635.654 47.04 640.774 47.04C645.787 47.04 650.08 48 653.654 49.92C657.28 51.84 660.054 54.5867 661.974 58.16C663.894 61.7333 664.854 66 664.854 70.96V75.44H628.454C628.987 79.0133 630.347 81.7333 632.534 83.6C634.72 85.4667 637.6 86.4 641.174 86.4C644 86.4 646.24 85.92 647.894 84.96C649.547 84 650.72 82.5333 651.414 80.56H664.694C663.627 85.68 661.04 89.7067 656.934 92.64C652.827 95.52 647.6 96.96 641.254 96.96ZM628.774 66.64H652.134C651.707 63.6 650.534 61.3333 648.614 59.84C646.694 58.2933 644.107 57.52 640.854 57.52C637.6 57.52 634.934 58.2933 632.854 59.84C630.827 61.3867 629.467 63.6533 628.774 66.64Z" fill="black" style="fill:black;fill-opacity:1;"/>
<path d="M687.92 96V31.2H711.36C718.4 31.2 724.453 32.5067 729.52 35.12C734.64 37.68 738.56 41.3867 741.28 46.24C744.053 51.0933 745.44 56.88 745.44 63.6C745.44 70.2667 744.053 76.0267 741.28 80.88C738.507 85.7333 734.56 89.4667 729.44 92.08C724.373 94.6933 718.347 96 711.36 96H687.92ZM697.12 88.16H711.36C719.2 88.16 725.28 86 729.6 81.68C733.973 77.36 736.16 71.3333 736.16 63.6C736.16 55.8133 734 49.7867 729.68 45.52C725.36 41.2 719.253 39.04 711.36 39.04H697.12V88.16ZM778.15 96.96C773.19 96.96 768.843 95.9467 765.11 93.92C761.43 91.84 758.577 88.9333 756.55 85.2C754.523 81.4667 753.51 77.0667 753.51 72C753.51 66.9333 754.523 62.5333 756.55 58.8C758.577 55.0667 761.43 52.1867 765.11 50.16C768.843 48.08 773.19 47.04 778.15 47.04C783.27 47.04 787.643 48.0533 791.27 50.08C794.95 52.1067 797.777 54.9867 799.75 58.72C801.777 62.4533 802.79 66.88 802.79 72C802.79 77.0667 801.777 81.4933 799.75 85.28C797.777 89.0133 794.95 91.8933 791.27 93.92C787.59 95.9467 783.217 96.96 778.15 96.96ZM778.15 89.12C783.11 89.12 786.95 87.6267 789.67 84.64C792.443 81.6 793.83 77.3867 793.83 72C793.83 66.56 792.443 62.3467 789.67 59.36C786.95 56.3733 783.11 54.88 778.15 54.88C773.243 54.88 769.403 56.4 766.63 59.44C763.857 62.4267 762.47 66.6133 762.47 72C762.47 77.3867 763.857 81.6 766.63 84.64C769.403 87.6267 773.243 89.12 778.15 89.12ZM834.483 96.96C829.629 96.96 825.389 95.9467 821.762 93.92C818.136 91.84 815.309 88.9333 813.283 85.2C811.309 81.4667 810.322 77.0667 810.322 72C810.322 66.9333 811.309 62.5333 813.283 58.8C815.256 55.0667 818.056 52.1867 821.682 50.16C825.309 48.08 829.576 47.04 834.483 47.04C840.349 47.04 845.229 48.5067 849.123 51.44C853.069 54.32 855.656 58.48 856.883 63.92H847.843C846.936 60.8267 845.363 58.56 843.122 57.12C840.936 55.6267 838.056 54.88 834.483 54.88C829.736 54.88 826.003 56.3733 823.282 59.36C820.616 62.3467 819.283 66.56 819.283 72C819.283 77.3867 820.616 81.6 823.282 84.64C826.003 87.6267 829.736 89.12 834.483 89.12C841.896 89.12 846.456 85.84 848.163 79.28H857.203C856.029 84.9867 853.469 89.36 849.523 92.4C845.576 95.44 840.563 96.96 834.483 96.96ZM883.714 96.96C877.047 96.96 871.794 95.5733 867.954 92.8C864.114 90.0267 862.007 86.16 861.634 81.2H870.514C870.887 84.1333 872.167 86.2933 874.354 87.68C876.54 89.0667 879.767 89.76 884.034 89.76C891.5 89.76 895.234 87.4133 895.234 82.72C895.234 80.8 894.647 79.3333 893.474 78.32C892.354 77.2533 890.434 76.48 887.714 76L877.234 74.08C868.327 72.4267 863.874 68.1867 863.874 61.36C863.874 56.9333 865.554 53.44 868.914 50.88C872.274 48.32 876.86 47.04 882.674 47.04C888.7 47.04 893.474 48.3467 896.994 50.96C900.567 53.5733 902.594 57.2533 903.074 62H894.354C893.82 59.3333 892.567 57.36 890.594 56.08C888.674 54.8 885.954 54.16 882.434 54.16C879.18 54.16 876.647 54.72 874.834 55.84C873.074 56.96 872.194 58.5867 872.194 60.72C872.194 62.3733 872.754 63.68 873.874 64.64C875.047 65.5467 876.914 66.24 879.474 66.72L889.954 68.72C894.647 69.5733 898.087 71.0933 900.274 73.28C902.46 75.4667 903.554 78.4 903.554 82.08C903.554 86.7733 901.847 90.4267 898.434 93.04C895.02 95.6533 890.114 96.96 883.714 96.96Z" fill="black" style="fill:black;fill-opacity:1;"/>
</svg>
