<svg width="475" height="100" viewBox="0 0 475 100" fill="none" xmlns="http://www.w3.org/2000/svg">
<path d="M84 23C88.4183 23 92 26.5817 92 31V69C92 73.4183 88.4183 77 84 77H47C45.993 77 45.0301 76.8123 44.1426 76.4727C44.0731 76.4913 44.0253 76.4941 44 76.4775C43.9059 76.416 43.8111 76.355 43.7158 76.2939C43.1119 76.0216 42.5481 75.6772 42.0352 75.2705C38.2342 73.069 33.7461 71.1725 29.2734 69.5869V72.4277C29.2733 74.8852 27.2807 76.877 24.8232 76.877H17.7988C15.3416 76.8767 13.3497 74.885 13.3496 72.4277V64.9658C12.1873 64.691 11.1468 64.4568 10.2607 64.2646C8.37263 63.855 7.00008 62.1957 7 60.2637V43.6084C7 41.6009 8.47672 39.8935 10.4453 39.5C16.8224 38.2251 30.6887 34.6695 40.2744 26.5332C40.3389 26.4784 40.4057 26.4268 40.4727 26.376C40.4641 26.388 40.4557 26.4001 40.4473 26.4121C41.8942 24.3493 44.289 23 47 23H84ZM47 27.8994C45.2877 27.8994 43.8994 29.2877 43.8994 31V69C43.8994 70.7123 45.2877 72.1006 47 72.1006H84C85.7123 72.1006 87.1006 70.7123 87.1006 69V31C87.1006 29.2877 85.7123 27.8994 84 27.8994H47ZM18.249 71.9775H24.374V67.9629C22.2394 67.2998 20.1704 66.7113 18.249 66.1982V71.9775Z" fill="#FF0163" style="fill:#FF0163;fill:color(display-p3 1.0000 0.0039 0.3882);fill-opacity:1;"/>
<path d="M57 48C57 46.8954 57.8954 46 59 46H60.7809C61.8855 46 62.7809 46.8954 62.7809 48V52.6714C62.7809 53.776 61.8855 54.6714 60.7809 54.6714H59C57.8954 54.6714 57 53.776 57 52.6714V48Z" fill="#FF0163" style="fill:#FF0163;fill:color(display-p3 1.0000 0.0039 0.3882);fill-opacity:1;"/>
<path d="M70.4531 48C70.4531 46.8954 71.3486 46 72.4531 46H74.234C75.3386 46 76.234 46.8954 76.234 48V52.6714C76.234 53.776 75.3386 54.6714 74.234 54.6714H72.4531C71.3486 54.6714 70.4531 53.776 70.4531 52.6714V48Z" fill="#FF0163" style="fill:#FF0163;fill:color(display-p3 1.0000 0.0039 0.3882);fill-opacity:1;"/>
<path d="M117.28 74V30.8H126.187L141.12 65.6267H141.333L156.32 30.8H165.173V74H159.04V38H158.827L143.52 74H138.56L123.2 37.9467H122.987V74H117.28ZM189.318 74.64C185.975 74.64 183.078 73.9644 180.624 72.6133C178.171 71.2267 176.269 69.2711 174.918 66.7467C173.602 64.2222 172.944 61.2711 172.944 57.8933C172.944 54.5156 173.602 51.6 174.918 49.1467C176.269 46.6578 178.153 44.7378 180.571 43.3867C182.989 42.0356 185.815 41.36 189.051 41.36C192.144 41.36 194.811 41.9822 197.051 43.2267C199.326 44.4711 201.086 46.2311 202.331 48.5067C203.575 50.7822 204.198 53.4844 204.198 56.6133V59.0133H178.704C178.882 62.3556 179.895 64.9689 181.744 66.8533C183.629 68.7022 186.135 69.6267 189.264 69.6267C191.433 69.6267 193.264 69.1822 194.757 68.2933C196.251 67.3689 197.282 66.0178 197.851 64.24H203.931C203.149 67.5467 201.46 70.1067 198.864 71.92C196.304 73.7333 193.122 74.64 189.318 74.64ZM178.918 54.64H198.438C198.153 52.0089 197.175 49.9644 195.504 48.5067C193.869 47.0489 191.7 46.32 188.998 46.32C186.331 46.32 184.109 47.0489 182.331 48.5067C180.553 49.9644 179.415 52.0089 178.918 54.64ZM224.821 87.44C220.376 87.44 216.768 86.5156 213.994 84.6667C211.221 82.8178 209.585 80.2578 209.088 76.9867H215.381C216.341 80.6133 219.452 82.4267 224.714 82.4267C228.056 82.4267 230.616 81.6267 232.394 80.0267C234.172 78.4622 235.061 76.2222 235.061 73.3067V68.1333H234.794C233.941 70.0178 232.59 71.4756 230.741 72.5067C228.892 73.5022 226.705 74 224.181 74C221.159 74 218.528 73.3422 216.288 72.0267C214.048 70.6756 212.323 68.7911 211.114 66.3733C209.905 63.92 209.301 61.0222 209.301 57.68C209.301 52.6667 210.652 48.7022 213.354 45.7867C216.056 42.8356 219.754 41.36 224.448 41.36C227.008 41.36 229.212 41.84 231.061 42.8C232.91 43.7244 234.368 45.0933 235.434 46.9067H237.674V42H244.074V48.1867H240.981V73.5733C240.981 77.9467 239.559 81.3422 236.714 83.76C233.905 86.2133 229.941 87.44 224.821 87.44ZM225.621 68.7733C228.43 68.7733 230.688 67.9556 232.394 66.32C234.136 64.6844 235.008 62.5156 235.008 59.8133V55.5467C235.008 52.8444 234.136 50.6756 232.394 49.04C230.688 47.4044 228.43 46.5867 225.621 46.5867C222.385 46.5867 219.843 47.5644 217.994 49.52C216.181 51.44 215.274 54.16 215.274 57.68C215.274 61.2 216.181 63.9378 217.994 65.8933C219.843 67.8133 222.385 68.7733 225.621 68.7733ZM260.501 74.5867C256.874 74.5867 254.012 73.6978 251.914 71.92C249.852 70.1067 248.821 67.7422 248.821 64.8267C248.821 61.7689 249.852 59.4044 251.914 57.7333C253.976 56.0267 256.945 55.1733 260.821 55.1733H271.754V53.7333C271.754 48.7911 269.034 46.32 263.594 46.32C259.15 46.32 256.465 47.9911 255.541 51.3333H249.514C250.048 48.1689 251.559 45.7156 254.048 43.9733C256.572 42.2311 259.79 41.36 263.701 41.36C268.145 41.36 271.541 42.4089 273.888 44.5067C276.27 46.6044 277.461 49.6267 277.461 53.5733V67.8133H280.341V74H273.941V69.0933H271.701C270.599 70.8 269.088 72.1511 267.167 73.1467C265.248 74.1067 263.025 74.5867 260.501 74.5867ZM261.301 69.7867C263.221 69.7867 264.981 69.3956 266.581 68.6133C268.181 67.8311 269.443 66.7644 270.368 65.4133C271.292 64.0622 271.754 62.5867 271.754 60.9867V59.5467H261.194C256.714 59.5467 254.474 61.2178 254.474 64.56C254.474 66.16 255.079 67.44 256.288 68.4C257.496 69.3244 259.168 69.7867 261.301 69.7867ZM287.582 86.8V48.1867H284.488V42H290.888V46.9067H293.128C294.195 45.0933 295.653 43.7244 297.502 42.8C299.351 41.84 301.555 41.36 304.115 41.36C307.351 41.36 310.088 42.0356 312.328 43.3867C314.568 44.7378 316.275 46.6578 317.448 49.1467C318.657 51.6356 319.262 54.5867 319.262 58C319.262 61.4133 318.675 64.3644 317.502 66.8533C316.328 69.3422 314.639 71.2622 312.435 72.6133C310.266 73.9644 307.671 74.64 304.648 74.64C302.124 74.64 299.919 74.1422 298.035 73.1467C296.151 72.1156 294.728 70.6756 293.768 68.8267H293.555V86.8H287.582ZM303.208 69.52C306.408 69.52 308.879 68.5067 310.622 66.48C312.399 64.4533 313.288 61.6267 313.288 58C313.288 54.3733 312.399 51.5467 310.622 49.52C308.879 47.4933 306.408 46.48 303.208 46.48C300.293 46.48 297.946 47.3156 296.168 48.9867C294.426 50.6578 293.555 52.88 293.555 55.6533V60.3467C293.555 63.12 294.426 65.3422 296.168 67.0133C297.946 68.6844 300.293 69.52 303.208 69.52ZM326.07 74V29.2H332.043V47.12H332.257C333.288 45.2711 334.728 43.8667 336.577 42.9067C338.426 41.9111 340.612 41.4133 343.137 41.4133C347.154 41.4133 350.337 42.6044 352.683 44.9867C355.066 47.3333 356.257 50.48 356.257 54.4267V74H350.283V55.44C350.283 52.56 349.501 50.3733 347.937 48.88C346.408 47.3867 344.15 46.64 341.163 46.64C338.212 46.64 335.954 47.3867 334.39 48.88C332.826 50.3733 332.043 52.56 332.043 55.44V74H326.07ZM379.308 74.64C376.002 74.64 373.104 73.9644 370.615 72.6133C368.162 71.2267 366.259 69.2889 364.908 66.8C363.557 64.3111 362.882 61.3778 362.882 58C362.882 54.6222 363.557 51.6889 364.908 49.2C366.259 46.7111 368.162 44.7911 370.615 43.44C373.104 42.0533 376.002 41.36 379.308 41.36C382.722 41.36 385.637 42.0356 388.055 43.3867C390.508 44.7378 392.393 46.6578 393.708 49.1467C395.059 51.6356 395.735 54.5867 395.735 58C395.735 61.3778 395.059 64.3289 393.708 66.8533C392.393 69.3422 390.508 71.2622 388.055 72.6133C385.602 73.9644 382.686 74.64 379.308 74.64ZM379.308 69.4133C382.615 69.4133 385.175 68.4178 386.988 66.4267C388.837 64.4 389.762 61.5911 389.762 58C389.762 54.3733 388.837 51.5644 386.988 49.5733C385.175 47.5822 382.615 46.5867 379.308 46.5867C376.037 46.5867 373.477 47.6 371.628 49.6267C369.779 51.6178 368.855 54.4089 368.855 58C368.855 61.5911 369.779 64.4 371.628 66.4267C373.477 68.4178 376.037 69.4133 379.308 69.4133ZM403.957 74V48.1867H400.863V42H407.263V46.9067H409.503C410.606 45.1289 412.117 43.7778 414.037 42.8533C415.957 41.8933 418.214 41.4133 420.81 41.4133C424.934 41.4133 428.188 42.6044 430.57 44.9867C432.952 47.3333 434.143 50.48 434.143 54.4267V74H428.17V55.44C428.17 52.56 427.388 50.3733 425.823 48.88C424.294 47.3867 422.037 46.64 419.05 46.64C416.099 46.64 413.841 47.3867 412.277 48.88C410.712 50.3733 409.93 52.56 409.93 55.44V74H403.957ZM457.13 74.64C453.788 74.64 450.89 73.9644 448.437 72.6133C445.983 71.2267 444.081 69.2711 442.73 66.7467C441.414 64.2222 440.757 61.2711 440.757 57.8933C440.757 54.5156 441.414 51.6 442.73 49.1467C444.081 46.6578 445.966 44.7378 448.383 43.3867C450.801 42.0356 453.628 41.36 456.863 41.36C459.957 41.36 462.623 41.9822 464.863 43.2267C467.139 44.4711 468.899 46.2311 470.143 48.5067C471.388 50.7822 472.01 53.4844 472.01 56.6133V59.0133H446.517C446.694 62.3556 447.708 64.9689 449.557 66.8533C451.441 68.7022 453.948 69.6267 457.077 69.6267C459.246 69.6267 461.077 69.1822 462.57 68.2933C464.063 67.3689 465.094 66.0178 465.663 64.24H471.743C470.961 67.5467 469.272 70.1067 466.677 71.92C464.117 73.7333 460.934 74.64 457.13 74.64ZM446.73 54.64H466.25C465.966 52.0089 464.988 49.9644 463.317 48.5067C461.681 47.0489 459.512 46.32 456.81 46.32C454.143 46.32 451.921 47.0489 450.143 48.5067C448.366 49.9644 447.228 52.0089 446.73 54.64Z" fill="white" style="fill:white;fill-opacity:1;"/>
</svg>
