<svg width="451" height="100" viewBox="0 0 451 100" fill="none" xmlns="http://www.w3.org/2000/svg">
<path d="M84 23C88.4183 23 92 26.5817 92 31V69C92 73.4183 88.4183 77 84 77H47C45.993 77 45.0301 76.8123 44.1426 76.4727C44.0731 76.4913 44.0253 76.4941 44 76.4775C43.9059 76.416 43.8111 76.355 43.7158 76.2939C43.1119 76.0216 42.5481 75.6772 42.0352 75.2705C38.2342 73.069 33.7461 71.1725 29.2734 69.5869V72.4277C29.2733 74.8852 27.2807 76.877 24.8232 76.877H17.7988C15.3416 76.8767 13.3497 74.885 13.3496 72.4277V64.9658C12.1873 64.691 11.1468 64.4568 10.2607 64.2646C8.37263 63.855 7.00008 62.1957 7 60.2637V43.6084C7 41.6009 8.47672 39.8935 10.4453 39.5C16.8224 38.2251 30.6887 34.6695 40.2744 26.5332C40.3389 26.4784 40.4057 26.4268 40.4727 26.376C40.4641 26.388 40.4557 26.4001 40.4473 26.4121C41.8942 24.3493 44.289 23 47 23H84ZM47 27.8994C45.2877 27.8994 43.8994 29.2877 43.8994 31V69C43.8994 70.7123 45.2877 72.1006 47 72.1006H84C85.7123 72.1006 87.1006 70.7123 87.1006 69V31C87.1006 29.2877 85.7123 27.8994 84 27.8994H47ZM18.249 71.9775H24.374V67.9629C22.2394 67.2998 20.1704 66.7113 18.249 66.1982V71.9775Z" fill="#FF0163" style="fill:#FF0163;fill:color(display-p3 1.0000 0.0039 0.3882);fill-opacity:1;"/>
<path d="M57 48C57 46.8954 57.8954 46 59 46H60.7809C61.8855 46 62.7809 46.8954 62.7809 48V52.6714C62.7809 53.776 61.8855 54.6714 60.7809 54.6714H59C57.8954 54.6714 57 53.776 57 52.6714V48Z" fill="#FF0163" style="fill:#FF0163;fill:color(display-p3 1.0000 0.0039 0.3882);fill-opacity:1;"/>
<path d="M70.4531 48C70.4531 46.8954 71.3486 46 72.4531 46H74.234C75.3386 46 76.234 46.8954 76.234 48V52.6714C76.234 53.776 75.3386 54.6714 74.234 54.6714H72.4531C71.3486 54.6714 70.4531 53.776 70.4531 52.6714V48Z" fill="#FF0163" style="fill:#FF0163;fill:color(display-p3 1.0000 0.0039 0.3882);fill-opacity:1;"/>
<path d="M114.833 65V38H122.533L130.533 57.0333H130.667L138.633 38H146.3V65H140.667V45.9333H140.533L132.8 65H127.967L120.267 45.9333H120.133V65H114.833ZM160.882 65.4C158.726 65.4 156.848 64.9778 155.248 64.1333C153.648 63.2667 152.415 62.0556 151.548 60.5C150.682 58.9222 150.248 57.0667 150.248 54.9333C150.248 52.8 150.671 50.9667 151.515 49.4333C152.36 47.8778 153.56 46.6889 155.115 45.8667C156.693 45.0222 158.548 44.6 160.682 44.6C162.771 44.6 164.56 45 166.048 45.8C167.56 46.6 168.715 47.7444 169.515 49.2333C170.315 50.7222 170.715 52.5 170.715 54.5667V56.4333H155.548C155.771 57.9222 156.337 59.0556 157.248 59.8333C158.16 60.6111 159.36 61 160.848 61C162.026 61 162.96 60.8 163.648 60.4C164.337 60 164.826 59.3889 165.115 58.5667H170.648C170.204 60.7 169.126 62.3778 167.415 63.6C165.704 64.8 163.526 65.4 160.882 65.4ZM155.682 52.7667H165.415C165.237 51.5 164.748 50.5556 163.948 49.9333C163.148 49.2889 162.071 48.9667 160.715 48.9667C159.36 48.9667 158.248 49.2889 157.382 49.9333C156.537 50.5778 155.971 51.5222 155.682 52.7667ZM183.605 73.4C180.605 73.4 178.16 72.7889 176.271 71.5667C174.405 70.3667 173.294 68.6889 172.938 66.5333H178.805C179.338 68.1778 180.882 69 183.438 69C185.171 69 186.494 68.6 187.405 67.8C188.338 67.0222 188.805 65.8889 188.805 64.4V61.7333H188.638C188.038 62.8 187.205 63.6111 186.138 64.1667C185.094 64.7222 183.838 65 182.371 65C180.482 65 178.838 64.5889 177.438 63.7667C176.06 62.9222 174.982 61.7333 174.205 60.2C173.449 58.6667 173.071 56.8667 173.071 54.8C173.071 51.6889 173.927 49.2111 175.638 47.3667C177.371 45.5222 179.738 44.6 182.738 44.6C184.427 44.6 185.86 44.9222 187.038 45.5667C188.238 46.2111 189.194 47.1111 189.905 48.2667H191.305V45H196.905V50.4667H194.171V64.4667C194.171 67.3111 193.26 69.5111 191.438 71.0667C189.616 72.6222 187.005 73.4 183.605 73.4ZM183.738 60.2C185.271 60.2 186.471 59.7778 187.338 58.9333C188.205 58.0889 188.638 56.9333 188.638 55.4667V54.0667C188.638 52.6222 188.194 51.4889 187.305 50.6667C186.438 49.8222 185.249 49.4 183.738 49.4C182.116 49.4 180.849 49.8778 179.938 50.8333C179.049 51.7889 178.605 53.1222 178.605 54.8333C178.605 56.5444 179.049 57.8667 179.938 58.8C180.849 59.7333 182.116 60.2 183.738 60.2ZM206.487 65.3667C204.131 65.3667 202.287 64.8 200.954 63.6667C199.62 62.5111 198.954 61 198.954 59.1333C198.954 57.1556 199.643 55.6333 201.02 54.5667C202.398 53.5 204.376 52.9667 206.954 52.9667H212.687V52.2C212.687 50.0444 211.398 48.9667 208.82 48.9667C206.576 48.9667 205.22 49.7444 204.754 51.3H199.254C199.698 49.1 200.731 47.4333 202.354 46.3C203.976 45.1667 206.131 44.6 208.82 44.6C211.798 44.6 214.065 45.2667 215.62 46.6C217.198 47.9333 217.987 49.8778 217.987 52.4333V59.5333H220.587V65H214.987V61.7333H213.587C212.898 62.8889 211.976 63.7889 210.82 64.4333C209.665 65.0556 208.22 65.3667 206.487 65.3667ZM207.32 61.1667C208.365 61.1667 209.287 60.9778 210.087 60.6C210.887 60.2222 211.52 59.7222 211.987 59.1C212.454 58.4556 212.687 57.7333 212.687 56.9333V56.6333H207.22C205.22 56.6333 204.22 57.3778 204.22 58.8667C204.22 59.6 204.498 60.1667 205.054 60.5667C205.609 60.9667 206.365 61.1667 207.32 61.1667ZM224.461 73V50.4667H221.728V45H227.328V48.2667H228.728C229.439 47.1111 230.384 46.2111 231.561 45.5667C232.761 44.9222 234.206 44.6 235.895 44.6C237.961 44.6 239.706 45.0333 241.128 45.9C242.55 46.7667 243.628 47.9778 244.361 49.5333C245.095 51.0889 245.461 52.9111 245.461 55C245.461 57.0889 245.106 58.9222 244.395 60.5C243.684 62.0556 242.65 63.2667 241.295 64.1333C239.939 64.9778 238.295 65.4 236.361 65.4C234.895 65.4 233.639 65.1333 232.595 64.6C231.55 64.0444 230.728 63.2667 230.128 62.2667H229.995V73H224.461ZM234.861 60.6C236.55 60.6 237.817 60.1 238.661 59.1C239.506 58.1 239.928 56.7333 239.928 55C239.928 53.2667 239.506 51.9 238.661 50.9C237.817 49.9 236.55 49.4 234.861 49.4C233.373 49.4 232.184 49.8222 231.295 50.6667C230.428 51.4889 229.995 52.6333 229.995 54.1V55.9C229.995 57.3667 230.428 58.5222 231.295 59.3667C232.184 60.1889 233.373 60.6 234.861 60.6ZM248.737 65V37H254.27V47.8667H254.404C255.048 46.8 255.915 46 257.004 45.4667C258.093 44.9111 259.381 44.6333 260.87 44.6333C263.381 44.6333 265.37 45.4 266.837 46.9333C268.326 48.4444 269.07 50.4778 269.07 53.0333V65H263.537V54.0667C263.537 52.6 263.137 51.4889 262.337 50.7333C261.559 49.9556 260.415 49.5667 258.904 49.5667C257.393 49.5667 256.237 49.9556 255.437 50.7333C254.659 51.4889 254.27 52.6 254.27 54.0667V65H248.737ZM282.968 65.4C280.79 65.4 278.89 64.9778 277.268 64.1333C275.668 63.2667 274.424 62.0556 273.535 60.5C272.646 58.9444 272.202 57.1 272.202 54.9667C272.202 52.8556 272.635 51.0222 273.502 49.4667C274.39 47.9111 275.646 46.7111 277.268 45.8667C278.89 45.0222 280.802 44.6 283.002 44.6C285.179 44.6 287.068 45.0222 288.668 45.8667C290.268 46.7111 291.502 47.9111 292.368 49.4667C293.235 51.0222 293.668 52.8667 293.668 55C293.668 57.1111 293.235 58.9556 292.368 60.5333C291.502 62.0889 290.257 63.2889 288.635 64.1333C287.035 64.9778 285.146 65.4 282.968 65.4ZM282.968 60.6C284.635 60.6 285.913 60.1 286.802 59.1C287.69 58.0778 288.135 56.7 288.135 54.9667C288.135 53.2333 287.69 51.8778 286.802 50.9C285.913 49.9 284.635 49.4 282.968 49.4C281.279 49.4 279.979 49.9 279.068 50.9C278.179 51.8778 277.735 53.2333 277.735 54.9667C277.735 56.7 278.179 58.0778 279.068 59.1C279.979 60.1 281.279 60.6 282.968 60.6ZM298.407 65V50.4667H295.673V45H301.273V48.2667H302.673C303.451 47.1111 304.429 46.2222 305.607 45.6C306.785 44.9556 308.251 44.6333 310.007 44.6333C312.785 44.6333 314.929 45.4 316.44 46.9333C317.973 48.4444 318.74 50.4778 318.74 53.0333V65H313.207V54.0667C313.207 52.6 312.807 51.4889 312.007 50.7333C311.229 49.9556 310.085 49.5667 308.573 49.5667C307.062 49.5667 305.907 49.9556 305.107 50.7333C304.329 51.4889 303.94 52.6 303.94 54.0667V65H298.407ZM332.522 65.4C330.367 65.4 328.489 64.9778 326.889 64.1333C325.289 63.2667 324.056 62.0556 323.189 60.5C322.322 58.9222 321.889 57.0667 321.889 54.9333C321.889 52.8 322.311 50.9667 323.156 49.4333C324 47.8778 325.2 46.6889 326.756 45.8667C328.334 45.0222 330.189 44.6 332.322 44.6C334.411 44.6 336.2 45 337.689 45.8C339.2 46.6 340.356 47.7444 341.156 49.2333C341.956 50.7222 342.356 52.5 342.356 54.5667V56.4333H327.189C327.411 57.9222 327.978 59.0556 328.889 59.8333C329.8 60.6111 331 61 332.489 61C333.667 61 334.6 60.8 335.289 60.4C335.978 60 336.467 59.3889 336.756 58.5667H342.289C341.845 60.7 340.767 62.3778 339.056 63.6C337.345 64.8 335.167 65.4 332.522 65.4ZM327.322 52.7667H337.056C336.878 51.5 336.389 50.5556 335.589 49.9333C334.789 49.2889 333.711 48.9667 332.356 48.9667C331 48.9667 329.889 49.2889 329.022 49.9333C328.178 50.5778 327.611 51.5222 327.322 52.7667Z" fill="black" style="fill:black;fill-opacity:1;"/>
<path d="M359.3 65V38H369.067C372 38 374.522 38.5444 376.633 39.6333C378.767 40.7 380.4 42.2444 381.533 44.2667C382.689 46.2889 383.267 48.7 383.267 51.5C383.267 54.2778 382.689 56.6778 381.533 58.7C380.378 60.7222 378.733 62.2778 376.6 63.3667C374.489 64.4556 371.978 65 369.067 65H359.3ZM363.133 61.7333H369.067C372.333 61.7333 374.867 60.8333 376.667 59.0333C378.489 57.2333 379.4 54.7222 379.4 51.5C379.4 48.2556 378.5 45.7444 376.7 43.9667C374.9 42.1667 372.356 41.2667 369.067 41.2667H363.133V61.7333ZM396.896 65.4C394.829 65.4 393.018 64.9778 391.462 64.1333C389.929 63.2667 388.74 62.0556 387.896 60.5C387.051 58.9444 386.629 57.1111 386.629 55C386.629 52.8889 387.051 51.0556 387.896 49.5C388.74 47.9444 389.929 46.7444 391.462 45.9C393.018 45.0333 394.829 44.6 396.896 44.6C399.029 44.6 400.851 45.0222 402.363 45.8667C403.896 46.7111 405.074 47.9111 405.896 49.4667C406.74 51.0222 407.163 52.8667 407.163 55C407.163 57.1111 406.74 58.9556 405.896 60.5333C405.074 62.0889 403.896 63.2889 402.363 64.1333C400.829 64.9778 399.007 65.4 396.896 65.4ZM396.896 62.1333C398.963 62.1333 400.563 61.5111 401.696 60.2667C402.851 59 403.429 57.2444 403.429 55C403.429 52.7333 402.851 50.9778 401.696 49.7333C400.563 48.4889 398.963 47.8667 396.896 47.8667C394.851 47.8667 393.251 48.5 392.096 49.7667C390.94 51.0111 390.363 52.7556 390.363 55C390.363 57.2444 390.94 59 392.096 60.2667C393.251 61.5111 394.851 62.1333 396.896 62.1333ZM420.368 65.4C418.345 65.4 416.579 64.9778 415.068 64.1333C413.557 63.2667 412.379 62.0556 411.534 60.5C410.712 58.9444 410.301 57.1111 410.301 55C410.301 52.8889 410.712 51.0556 411.534 49.5C412.357 47.9444 413.523 46.7444 415.034 45.9C416.545 45.0333 418.323 44.6 420.368 44.6C422.812 44.6 424.845 45.2111 426.468 46.4333C428.112 47.6333 429.19 49.3667 429.701 51.6333H425.934C425.557 50.3444 424.901 49.4 423.968 48.8C423.057 48.1778 421.857 47.8667 420.368 47.8667C418.39 47.8667 416.834 48.4889 415.701 49.7333C414.59 50.9778 414.034 52.7333 414.034 55C414.034 57.2444 414.59 59 415.701 60.2667C416.834 61.5111 418.39 62.1333 420.368 62.1333C423.457 62.1333 425.357 60.7667 426.068 58.0333H429.834C429.345 60.4111 428.279 62.2333 426.634 63.5C424.99 64.7667 422.901 65.4 420.368 65.4ZM440.881 65.4C438.103 65.4 435.914 64.8222 434.314 63.6667C432.714 62.5111 431.836 60.9 431.681 58.8333H435.381C435.536 60.0556 436.07 60.9556 436.981 61.5333C437.892 62.1111 439.236 62.4 441.014 62.4C444.125 62.4 445.681 61.4222 445.681 59.4667C445.681 58.6667 445.436 58.0556 444.947 57.6333C444.481 57.1889 443.681 56.8667 442.547 56.6667L438.181 55.8667C434.47 55.1778 432.614 53.4111 432.614 50.5667C432.614 48.7222 433.314 47.2667 434.714 46.2C436.114 45.1333 438.025 44.6 440.447 44.6C442.959 44.6 444.947 45.1444 446.414 46.2333C447.903 47.3222 448.747 48.8556 448.947 50.8333H445.314C445.092 49.7222 444.57 48.9 443.747 48.3667C442.947 47.8333 441.814 47.5667 440.347 47.5667C438.992 47.5667 437.936 47.8 437.181 48.2667C436.447 48.7333 436.081 49.4111 436.081 50.3C436.081 50.9889 436.314 51.5333 436.781 51.9333C437.27 52.3111 438.047 52.6 439.114 52.8L443.481 53.6333C445.436 53.9889 446.87 54.6222 447.781 55.5333C448.692 56.4444 449.147 57.6667 449.147 59.2C449.147 61.1556 448.436 62.6778 447.014 63.7667C445.592 64.8556 443.547 65.4 440.881 65.4Z" fill="black" style="fill:black;fill-opacity:1;"/>
</svg>
