<svg width="100" height="100" viewBox="0 0 100 100" fill="none" xmlns="http://www.w3.org/2000/svg">
<path fill-rule="evenodd" clip-rule="evenodd" d="M47 27.8996L84 27.8996C85.7123 27.8996 87.1004 29.2877 87.1004 31V69C87.1004 70.7123 85.7123 72.1004 84 72.1004H47C45.2877 72.1004 43.8996 70.7123 43.8996 69V31C43.8996 29.2877 45.2877 27.8996 47 27.8996ZM39.6261 27.8921C40.8392 25.0175 43.684 23 47 23L84 23C88.4183 23 92 26.5817 92 31V69C92 73.4183 88.4183 77 84 77H47C45.993 77 45.0294 76.8139 44.1418 76.4743C44.0729 76.4926 44.0252 76.4941 44 76.4776C43.9116 76.4198 43.8227 76.3622 43.7333 76.3048C43.117 76.0288 42.5421 75.6771 42.0202 75.2615C38.2224 73.0637 33.7401 71.1706 29.2733 69.5872V72.4275C29.2733 74.885 27.281 76.8773 24.8235 76.8773H17.7993C15.3417 76.8773 13.3495 74.885 13.3495 72.4275V64.9652C12.1874 64.6904 11.1469 64.4568 10.2609 64.2647C8.37251 63.8551 7 62.1954 7 60.2632V43.6077C7 41.6001 8.47655 39.8928 10.4452 39.4993C16.8222 38.2246 30.6883 34.6695 40.2741 26.5332C40.3389 26.4782 40.405 26.4251 40.4723 26.374C40.138 26.8448 39.8534 27.3534 39.6261 27.8921ZM39.0104 30.5883C39.0035 30.7247 39 30.8619 39 30.9999V31C39 30.8619 39.0035 30.7247 39.0104 30.5883ZM18.2491 66.198C20.1703 66.711 22.2392 67.2993 24.3736 67.9622V71.9777H18.2491V66.198Z" fill="#FF0163" style="fill:#FF0163;fill:color(display-p3 1.0000 0.0039 0.3882);fill-opacity:1;"/>
<path d="M57 48C57 46.8954 57.8954 46 59 46H60.7809C61.8855 46 62.7809 46.8954 62.7809 48V52.6714C62.7809 53.776 61.8855 54.6714 60.7809 54.6714H59C57.8954 54.6714 57 53.776 57 52.6714V48Z" fill="#FF0163" style="fill:#FF0163;fill:color(display-p3 1.0000 0.0039 0.3882);fill-opacity:1;"/>
<path d="M70.4531 48C70.4531 46.8954 71.3486 46 72.4531 46H74.234C75.3386 46 76.234 46.8954 76.234 48V52.6714C76.234 53.776 75.3386 54.6714 74.234 54.6714H72.4531C71.3486 54.6714 70.4531 53.776 70.4531 52.6714V48Z" fill="#FF0163" style="fill:#FF0163;fill:color(display-p3 1.0000 0.0039 0.3882);fill-opacity:1;"/>
</svg>
